<?xml version="1.0" encoding="UTF-8"?>
<svg width="281px" height="49px" viewBox="0 0 281 49" version="1.1" xmlns="http://www.w3.org/2000/svg" xmlns:xlink="http://www.w3.org/1999/xlink">
    <!-- Generator: Sketch 42 (36781) - http://www.bohemiancoding.com/sketch -->
    <title>dc logo</title>
    <desc>Created with Sketch.</desc>
    <defs></defs>
    <g id="Symbols" stroke="none" stroke-width="1" fill="none" fill-rule="evenodd">
        <g id="dc-logo" fill="#FFFFFF">
            <g id="Group-2">
                <g id="gmlogo" fill-rule="nonzero">
                    <g id="Layer_1">
                        <g id="Group">
                            <path d="M49.0211679,4.16666667 C49.6364964,3.54166667 50.4569343,3.125 51.2773723,3.125 L51.6875912,3.125 C52.5080292,3.125 53.3284672,3.33333333 53.9437956,3.75 C54.5591241,4.16666667 54.9693431,4.79166667 54.9693431,5.41666667 C54.9693431,6.04166667 55.1744526,6.25 55.5846715,6.45833333 C55.9948905,6.66666667 56.2,6.875 56.610219,6.875 C57.020438,6.875 57.4306569,6.66666667 57.6357664,6.45833333 C58.0459854,6.25 58.0459854,5.83333333 58.0459854,5.20833333 L58.0459854,5.41666667 C58.0459854,4.58333333 57.8408759,3.95833333 57.4306569,3.33333333 C57.020438,2.70833333 56.610219,2.08333333 55.9948905,1.66666667 C55.379562,1.25 54.7642336,0.833333333 53.9437956,0.625 C53.5335766,0.208333333 52.7131387,0 51.6875912,0 L51.2773723,0 C50.4569343,0 49.4313869,0.208333333 48.8160584,0.416666667 C47.9956204,0.833333333 47.380292,1.25 46.7649635,1.875 C46.149635,2.5 45.7394161,3.125 45.3291971,3.95833333 C44.9189781,4.79166667 44.7138686,5.625 44.7138686,6.45833333 L44.7138686,17.2916667 C44.7138686,18.125 44.9189781,19.1666667 45.3291971,19.7916667 C45.7394161,20.625 46.149635,21.25 46.7649635,21.875 C47.380292,22.5 47.9956204,22.9166667 48.8160584,23.3333333 C49.6364964,23.75 50.4569343,23.75 51.4824818,23.75 L51.8927007,23.75 C52.7131387,23.75 53.7386861,23.5416667 54.3540146,23.125 C55.1744526,22.7083333 55.789781,22.2916667 56.4051095,21.6666667 C57.020438,21.0416667 57.4306569,20.4166667 57.8408759,19.5833333 C58.2510949,18.75 58.4562044,17.9166667 58.4562044,16.875 L58.4562044,12.2916667 C58.4562044,11.875 58.2510949,11.4583333 58.0459854,11.0416667 C57.6357664,10.625 57.4306569,10.625 56.8153285,10.625 L52.5080292,10.625 C51.8927007,10.625 51.4824818,10.8333333 51.2773723,11.0416667 C51.0722628,11.4583333 50.8671533,11.6666667 50.8671533,12.0833333 C50.8671533,12.5 51.0722628,12.9166667 51.2773723,13.125 C51.4824818,13.5416667 51.8927007,13.5416667 52.5080292,13.5416667 L55.1744526,13.5416667 L55.1744526,17.0833333 C55.1744526,17.5 55.1744526,17.9166667 54.9693431,18.3333333 C54.7642336,18.75 54.5591241,19.1666667 54.1489051,19.375 C53.9437956,19.5833333 53.5335766,20 53.1233577,20.2083333 C52.7131387,20.4166667 52.3029197,20.4166667 51.8927007,20.4166667 L51.4824818,20.4166667 C50.6620438,20.4166667 49.8416058,20 49.2262774,19.375 C48.6109489,18.75 48.2007299,17.9166667 48.2007299,17.0833333 L48.2007299,6.45833333 C47.9956204,5.625 48.4058394,4.79166667 49.0211679,4.16666667 Z" id="Shape"></path>
                            <path d="M84.5051095,11.0416667 C84.9153285,10.4166667 85.120438,9.79166667 85.3255474,9.16666667 C85.5306569,8.54166667 85.5306569,7.70833333 85.5306569,7.08333333 L85.5306569,6.875 C85.5306569,6.04166667 85.3255474,5 84.9153285,4.375 C84.5051095,3.54166667 84.0948905,2.91666667 83.479562,2.29166667 C82.8642336,1.66666667 82.2489051,1.25 81.4284672,0.833333333 C80.6080292,0.416666667 79.7875912,0.208333333 78.9671533,0.208333333 L73.4291971,0.208333333 C73.0189781,0.208333333 72.6087591,0.416666667 72.4036496,0.625 C71.9934307,1.04166667 71.9934307,1.25 71.9934307,1.66666667 L71.9934307,22.2916667 C71.9934307,22.9166667 72.1985401,23.3333333 72.4036496,23.5416667 C72.8138686,23.75 73.0189781,23.9583333 73.6343066,23.9583333 C74.0445255,23.9583333 74.4547445,23.75 74.659854,23.5416667 C75.070073,23.3333333 75.070073,22.9166667 75.070073,22.2916667 L75.070073,13.75 L77.7364964,13.75 L82.0437956,23.125 C82.2489051,23.5416667 82.4540146,23.75 82.6591241,23.75 C82.8642336,23.9583333 83.0693431,23.9583333 83.479562,23.9583333 C84.0948905,23.9583333 84.5051095,23.75 84.710219,23.5416667 C84.9153285,23.3333333 85.120438,22.9166667 85.120438,22.2916667 C85.120438,22.0833333 85.120438,21.875 84.9153285,21.6666667 L81.0182482,13.5416667 C82.0437956,13.3333333 82.6591241,12.9166667 83.2744526,12.5 C83.6846715,12.0833333 84.0948905,11.6666667 84.5051095,11.0416667 Z M82.4540146,7.08333333 C82.4540146,7.91666667 82.2489051,8.75 81.6335766,9.375 C81.0182482,10 80.1978102,10.4166667 79.3773723,10.4166667 L75.2751825,10.4166667 L75.2751825,3.54166667 L79.1722628,3.54166667 C79.9927007,3.54166667 80.8131387,3.95833333 81.4284672,4.58333333 C82.0437956,5.20833333 82.4540146,6.04166667 82.4540146,7.08333333 L82.4540146,7.08333333 Z" id="Shape"></path>
                            <path d="M110.554015,1.875 C109.938686,1.25 109.323358,0.833333333 108.50292,0.416666667 C107.682482,0.208333333 106.862044,0 105.836496,0 L105.631387,0 C104.810949,0 103.785401,0.208333333 102.964964,0.416666667 C102.144526,0.833333333 101.529197,1.25 100.913869,1.875 C100.29854,2.5 99.8883212,3.125 99.4781022,3.95833333 C99.0678832,4.79166667 98.8627737,5.625 98.8627737,6.45833333 L98.8627737,17.2916667 C98.8627737,18.125 99.0678832,19.1666667 99.4781022,19.7916667 C99.8883212,20.625 100.29854,21.25 100.913869,21.875 C101.529197,22.5 102.144526,22.9166667 102.964964,23.3333333 C103.785401,23.75 104.605839,23.75 105.426277,23.75 L105.836496,23.75 C106.656934,23.75 107.682482,23.5416667 108.29781,23.3333333 C109.118248,22.9166667 109.733577,22.5 110.348905,21.875 C110.964234,21.25 111.374453,20.625 111.784672,19.7916667 C112.194891,18.9583333 112.4,18.125 112.4,17.2916667 L112.4,6.45833333 C112.4,5.625 112.194891,4.79166667 111.784672,3.95833333 C111.579562,3.125 111.169343,2.5 110.554015,1.875 Z M109.323358,17.5 C109.323358,18.5416667 108.913139,19.1666667 108.29781,19.7916667 C107.682482,20.4166667 106.862044,20.8333333 106.041606,20.8333333 L105.631387,20.8333333 C104.810949,20.8333333 103.990511,20.4166667 103.375182,19.7916667 C102.759854,19.1666667 102.349635,18.3333333 102.349635,17.5 L102.349635,6.45833333 C102.349635,5.625 102.759854,4.79166667 103.375182,4.16666667 C103.990511,3.54166667 104.810949,3.125 105.631387,3.125 L106.041606,3.125 C106.862044,3.125 107.682482,3.33333333 108.29781,3.95833333 C108.913139,4.58333333 109.323358,5.41666667 109.323358,6.25 L109.323358,17.5 Z" id="Shape"></path>
                            <path d="M133.936496,22.5 L138.859124,2.08333333 L138.859124,1.66666667 C138.859124,1.25 138.654015,0.833333333 138.448905,0.625 C138.038686,0.208333333 137.628467,0 137.218248,0 C136.808029,0 136.60292,0 136.39781,0.208333333 C136.192701,0.416666667 135.987591,0.625 135.782482,1.25 L132.090511,16.875 L128.39854,1.25 C128.193431,0.833333333 127.988321,0.416666667 127.783212,0.208333333 C127.578102,0 127.167883,0 126.962774,0 C126.552555,0 126.142336,0.208333333 125.732117,0.416666667 C125.321898,0.833333333 125.116788,1.25 125.116788,1.66666667 L125.116788,2.08333333 L130.039416,22.7083333 C130.244526,23.125 130.449635,23.5416667 130.654745,23.75 C131.064964,23.9583333 131.475182,24.1666667 131.885401,24.1666667 C132.29562,24.1666667 132.705839,23.9583333 133.116058,23.75 C133.526277,23.3333333 133.731387,23.125 133.936496,22.5 Z" id="Shape"></path>
                            <path d="M153.832117,23.75 L164.087591,23.75 C164.70292,23.75 165.113139,23.5416667 165.318248,23.3333333 C165.523358,22.9166667 165.728467,22.7083333 165.728467,22.2916667 C165.728467,21.875 165.523358,21.4583333 165.318248,21.25 C165.113139,20.8333333 164.70292,20.8333333 164.087591,20.8333333 L155.472993,20.8333333 L155.472993,13.3333333 L161.421168,13.3333333 C162.036496,13.3333333 162.446715,13.125 162.651825,12.9166667 C162.856934,12.5 163.062044,12.2916667 163.062044,11.875 C163.062044,11.4583333 162.856934,11.0416667 162.651825,10.8333333 C162.446715,10.4166667 162.036496,10.4166667 161.421168,10.4166667 L155.472993,10.4166667 L155.472993,3.54166667 L164.087591,3.54166667 C164.70292,3.54166667 165.113139,3.33333333 165.318248,3.125 C165.523358,2.70833333 165.728467,2.5 165.728467,2.08333333 C165.728467,1.66666667 165.523358,1.25 165.318248,1.04166667 C165.113139,0.625 164.70292,0.625 164.087591,0.625 L153.832117,0.625 C153.421898,0.625 153.011679,0.833333333 152.806569,1.04166667 C152.39635,1.45833333 152.39635,1.66666667 152.39635,2.08333333 L152.39635,22.5 C152.39635,22.9166667 152.60146,23.3333333 152.806569,23.5416667 C153.011679,23.5416667 153.421898,23.75 153.832117,23.75 Z" id="Shape"></path>
                            <path d="M194.238686,23.5416667 C194.648905,23.75 194.854015,23.9583333 195.264234,23.9583333 C195.674453,23.9583333 196.084672,23.75 196.289781,23.5416667 C196.7,23.3333333 196.7,22.9166667 196.7,22.2916667 L196.7,1.66666667 C196.7,1.25 196.494891,0.833333333 196.289781,0.625 C196.289781,0.208333333 195.879562,0 195.469343,0 L195.059124,0 C194.648905,0 194.238686,0 194.033577,0.208333333 C193.828467,0.416666667 193.623358,0.625 193.418248,1.04166667 L188.49562,12.2916667 L183.572993,1.04166667 C183.162774,0.416666667 182.752555,0 181.932117,0 L181.521898,0 C181.111679,0 180.70146,0.208333333 180.49635,0.416666667 C180.086131,0.833333333 180.086131,1.04166667 180.086131,1.45833333 L180.086131,22.0833333 C180.086131,22.7083333 180.291241,23.125 180.49635,23.3333333 C180.906569,23.5416667 181.111679,23.75 181.521898,23.75 C181.932117,23.75 182.342336,23.5416667 182.547445,23.3333333 C182.957664,23.125 182.957664,22.7083333 182.957664,22.0833333 L182.957664,7.5 L186.649635,16.0416667 C186.854745,16.4583333 187.059854,16.6666667 187.264964,16.875 C187.470073,17.0833333 187.880292,17.0833333 188.290511,17.0833333 C188.70073,17.0833333 188.905839,17.0833333 189.316058,16.875 C189.726277,16.6666667 189.931387,16.4583333 189.931387,16.0416667 L193.623358,7.5 L193.623358,22.0833333 C193.828467,22.9166667 194.033577,23.3333333 194.238686,23.5416667 Z" id="Shape"></path>
                            <path d="M219.672263,0.208333333 C219.262044,0 218.851825,0 218.441606,0 C218.031387,0 217.621168,0.208333333 217.416058,0.416666667 C217.005839,0.625 216.80073,1.04166667 216.59562,1.45833333 L210.237226,22.0833333 L210.237226,22.7083333 C210.237226,23.125 210.442336,23.5416667 210.647445,23.75 C210.852555,23.9583333 211.262774,24.1666667 211.878102,24.1666667 C212.288321,24.1666667 212.493431,24.1666667 212.90365,23.9583333 C213.313869,23.75 213.518978,23.5416667 213.518978,23.125 L214.954745,18.5416667 L222.338686,18.5416667 L223.774453,23.125 C223.979562,23.5416667 224.184672,23.75 224.389781,23.9583333 C224.594891,24.1666667 225.005109,24.1666667 225.210219,24.1666667 C225.620438,24.1666667 226.030657,23.9583333 226.440876,23.75 C226.645985,23.5416667 226.851095,23.125 226.851095,22.7083333 L226.851095,22.2916667 L220.492701,1.66666667 C220.287591,0.833333333 220.082482,0.416666667 219.672263,0.208333333 Z M215.775182,15 L218.441606,6.04166667 L221.108029,15 L215.775182,15 Z" id="Shape"></path>
                            <path d="M249.413139,0.625 C248.592701,0.208333333 247.772263,0.208333333 246.951825,0.208333333 L241.618978,0.208333333 C241.208759,0.208333333 240.79854,0.416666667 240.593431,0.625 C240.183212,1.04166667 240.183212,1.25 240.183212,1.66666667 L240.183212,22.0833333 C240.183212,22.5 240.388321,22.9166667 240.593431,23.125 C241.00365,23.5416667 241.208759,23.5416667 241.618978,23.5416667 L246.951825,23.5416667 C247.772263,23.5416667 248.79781,23.3333333 249.413139,23.125 C250.233577,22.7083333 250.848905,22.2916667 251.464234,21.875 C252.079562,21.4583333 252.489781,20.625 252.9,19.7916667 C253.310219,18.9583333 253.515328,18.125 253.515328,17.0833333 L253.515328,6.875 C253.515328,5.83333333 253.310219,5 252.9,4.16666667 C252.489781,3.33333333 252.079562,2.70833333 251.464234,2.08333333 C251.054015,1.45833333 250.233577,1.04166667 249.413139,0.625 Z M250.233577,17.0833333 C250.233577,17.5 250.233577,17.9166667 250.028467,18.3333333 C249.823358,18.75 249.618248,19.1666667 249.208029,19.375 C249.00292,19.5833333 248.592701,20 248.182482,20.2083333 C247.772263,20.4166667 247.362044,20.4166667 246.951825,20.4166667 L243.259854,20.4166667 L243.259854,3.54166667 L246.951825,3.54166667 C247.362044,3.54166667 247.772263,3.54166667 248.182482,3.75 C248.592701,3.95833333 249.00292,4.16666667 249.208029,4.58333333 C249.413139,4.79166667 249.823358,5.20833333 250.028467,5.625 C250.233577,6.04166667 250.233577,6.45833333 250.233577,6.875 L250.233577,17.0833333 Z" id="Shape"></path>
                            <path d="M279.154015,3.54166667 C279.769343,3.54166667 280.179562,3.33333333 280.384672,3.125 C280.589781,2.70833333 280.794891,2.5 280.794891,2.08333333 L280.794891,2.08333333 C280.794891,1.66666667 280.589781,1.25 280.384672,1.04166667 C280.179562,0.625 279.769343,0.625 279.154015,0.625 L268.89854,0.625 C268.488321,0.625 268.078102,0.833333333 267.872993,1.04166667 C267.462774,1.45833333 267.462774,1.66666667 267.462774,2.08333333 L267.462774,22.5 C267.462774,22.9166667 267.667883,23.3333333 267.872993,23.5416667 C268.283212,23.9583333 268.488321,23.9583333 268.89854,23.9583333 L279.154015,23.9583333 C279.769343,23.9583333 280.179562,23.75 280.384672,23.5416667 C280.589781,23.125 280.794891,22.9166667 280.794891,22.5 L280.794891,22.5 C280.794891,22.0833333 280.589781,21.6666667 280.384672,21.4583333 C280.179562,21.0416667 279.769343,21.0416667 279.154015,21.0416667 L270.539416,21.0416667 L270.539416,13.3333333 L276.487591,13.3333333 C277.10292,13.3333333 277.513139,13.125 277.718248,12.9166667 C277.923358,12.5 278.128467,12.2916667 278.128467,11.875 C278.128467,11.4583333 277.923358,11.0416667 277.718248,10.8333333 C277.513139,10.4166667 277.10292,10.4166667 276.487591,10.4166667 L270.539416,10.4166667 L270.539416,3.54166667 L279.154015,3.54166667 Z" id="Shape"></path>
                            <path d="M16.2036496,23.3333333 L16.2036496,23.3333333 L16.2036496,23.125 C16.2036496,23.3333333 13.9474453,17.5 13.1270073,16.6666667 C11.2810219,14.7916667 9.22992701,15 7.79416058,15 L0.820437956,15 C0.410218978,15 0,15.2083333 0,15.625 L0,15.625 L0,15.8333333 C0,15.8333333 2.25620438,21.6666667 3.07664234,22.2916667 C4.71751825,23.9583333 6.15328467,23.9583333 8.40948905,23.9583333 L15.5883212,23.9583333 C15.9985401,23.9583333 16.2036496,23.75 16.2036496,23.3333333 Z" id="Shape"></path>
                            <path d="M28.1,16.0416667 C28.1,11.6666667 23.5875912,2.08333333 22.9722628,0.416666667 C22.9722628,0.208333333 22.7671533,0 22.3569343,0 C22.1518248,0 21.7416058,0.208333333 21.7416058,0.416666667 C18.6649635,7.70833333 16.4087591,13.125 16.4087591,13.125 C16.2036496,13.75 15.9985401,14.375 16.2036496,15 C16.4087591,15.625 17.6394161,18.125 18.459854,20.2083333 C19.6905109,23.125 19.8956204,23.9583333 22.5620438,23.9583333 C25.8437956,23.9583333 28.1,21.0416667 28.1,16.0416667 Z" id="Shape"></path>
                        </g>
                    </g>
                </g>
                <text id="DESK-COLLECTION" font-family="Futura-Medium, Futura" font-size="14" font-weight="400" letter-spacing="10.5">
                    <tspan x="0" y="43">DESK COLLECTIO</tspan>
                    <tspan x="262.623047" y="43">N</tspan>
                </text>
            </g>
        </g>
    </g>
</svg>